<?xml version="1.0" encoding="utf-8"?>
<!-- Generator: Adobe Illustrator 24.2.3, SVG Export Plug-In . SVG Version: 6.00 Build 0)  -->
<svg version="1.1" id="Lag_1" xmlns="http://www.w3.org/2000/svg" xmlns:xlink="http://www.w3.org/1999/xlink" x="0px" y="0px"
	 viewBox="0 0 335.5 172.7" style="enable-background:new 0 0 335.5 172.7;" xml:space="preserve">
<style type="text/css">
	.st0{fill:#9F88F2;}
	.st1{fill:#FFFFFF;}
</style>
<g>
	<g>
		<path class="st0" d="M0,174.9V-1.4h53v151.8h52.1v24.5L0,174.9L0,174.9z"/>
	</g>
	<g>
		<rect x="51" y="125.3" class="st0" width="54.2" height="28.4"/>
	</g>
</g>
<g>
	<path class="st0" d="M57.9,118.8V-1.9h46.5v120.6H57.9V118.8z"/>
</g>
<g>
	<path class="st0" d="M109.8,174.9V-1.5h32.1l48.3,92.3V-1.5h37v176.4h-30.8l-48.2-97.8v97.8H109.8z"/>
</g>
<g>
	<path class="st0" d="M234.2,174.9V-1.4h109.3v24.5h-56.3v48h39.9v25.1h-39.9v54.3h56.3V175H234.2V174.9z"/>
</g>
<g>
	<rect x="276" y="135.5" class="st0" width="61" height="37.3"/>
</g>
<g>
	<rect x="247.5" y="0" class="st0" width="88.1" height="37.3"/>
</g>
<g>
	<rect x="286.1" y="71.1" class="st0" width="44" height="30.5"/>
</g>
<g>
	<rect x="281.3" y="101.6" class="st1" width="6.8" height="33.9"/>
</g>
<g>
	<rect x="281.3" y="37.3" class="st1" width="6.8" height="33.9"/>
</g>
<rect x="142.5" y="72.8" class="st0" width="10.2" height="101.6"/>
<rect x="183.1" y="-3.4" class="st0" width="10.2" height="118.5"/>
<rect x="10.4" y="-105.2" class="st1" width="365.8" height="27.1"/>
<rect x="-16.7" y="284.2" class="st1" width="365.8" height="27.1"/>
</svg>
