<?xml version="1.0" encoding="utf-8"?>
<!-- Generator: Adobe Illustrator 24.2.3, SVG Export Plug-In . SVG Version: 6.00 Build 0)  -->
<svg version="1.1" id="Lag_1" xmlns="http://www.w3.org/2000/svg" xmlns:xlink="http://www.w3.org/1999/xlink" x="0px" y="0px"
	 viewBox="0 0 335.3 175.9" style="enable-background:new 0 0 335.3 175.9;" xml:space="preserve">
<style type="text/css">
	.st0{fill:#9F88F2;}
</style>
<g>
	<g>
		<path class="st0" d="M0,176.3V0h53v151.8h52.1v24.5L0,176.3L0,176.3z"/>
	</g>
	<g>
		<rect x="51" y="126.7" class="st0" width="54.2" height="28.4"/>
	</g>
</g>
<g>
	<path class="st0" d="M57.9,120.2V-0.5h46.5v120.6L57.9,120.2L57.9,120.2z"/>
</g>
<g>
	<path class="st0" d="M109.8,176.3V-0.1h32.1l48.3,92.3V-0.1h37v176.4h-30.8l-48.2-97.8v97.8H109.8z"/>
</g>
<rect x="142.5" y="74.2" class="st0" width="10.2" height="101.6"/>
<rect x="183.1" y="-2" class="st0" width="10.2" height="118.5"/>
<g>
	<rect x="234.1" y="-0.5" class="st0" width="101.4" height="38.7"/>
	<rect x="233.9" y="137.2" class="st0" width="101.4" height="38.7"/>
	<rect x="233.9" y="72" class="st0" width="94.7" height="30.5"/>
	<rect x="234.1" y="-0.5" class="st0" width="52.6" height="176.4"/>
</g>
</svg>
