<?xml version="1.0" standalone="no"?>
<!DOCTYPE svg PUBLIC "-//W3C//DTD SVG 20010904//EN"
 "http://www.w3.org/TR/2001/REC-SVG-20010904/DTD/svg10.dtd">
<svg version="1.0" xmlns="http://www.w3.org/2000/svg"
 width="1216.000000pt" height="1216.000000pt" viewBox="0 0 1216.000000 1216.000000"
 preserveAspectRatio="xMidYMid meet">
<metadata>
Created by potrace 1.11, written by Peter Selinger 2001-2013
</metadata>
<g transform="translate(0.000000,1216.000000) scale(0.100000,-0.100000)"
fill="#000000" stroke="none">
<path d="M2419 8881 c-4 -201 0 -3801 4 -3807 4 -7 877 -12 908 -5 3 0 5 866
5 1924 l-1 1922 -457 1 -458 1 -1 -36z"/>
<path d="M12 8898 c-9 -9 -12 -706 -12 -2833 l0 -2822 1658 -1 c911 0 1666 1
1677 3 19 4 20 13 22 352 1 191 3 510 5 708 2 198 2 365 1 370 -2 7 -282 10
-816 9 l-813 0 0 2108 1 2108 -608 0 c-334 0 -612 2 -616 4 -5 3 -11 3 -14 0
-8 -8 -132 -8 -145 0 -5 3 -12 3 -15 0 -8 -8 -132 -8 -145 0 -5 3 -12 3 -15 0
-8 -8 -132 -8 -145 -1 -5 4 -14 1 -20 -5z"/>
<path d="M4282 8899 c-9 -3 -23 -4 -29 -2 -9 3 -13 -5 -14 -23 0 -16 -1 -1289
-1 -2829 l-1 -2800 607 -1 c334 0 609 2 611 6 3 4 5 714 6 1576 l1 1569 94
-195 c52 -107 99 -203 105 -212 5 -10 13 -26 19 -35 27 -51 170 -355 170 -363
0 -6 5 -10 10 -10 6 0 10 -5 10 -11 0 -6 32 -77 71 -158 39 -80 75 -155 80
-166 5 -11 13 -27 18 -35 5 -8 33 -64 62 -125 29 -60 96 -200 149 -310 196
-403 279 -573 350 -720 39 -82 86 -179 104 -215 17 -36 34 -67 39 -68 4 -2 7
-9 7 -16 0 -6 38 -88 83 -181 46 -94 101 -206 122 -251 l38 -80 493 -1 494 0
1 21 c0 12 1 1283 1 2826 l1 2805 -589 3 -589 2 0 -1464 c0 -805 -3 -1462 -8
-1459 -4 2 -15 21 -25 41 -10 20 -24 48 -32 62 -7 14 -16 32 -20 40 -4 8 -20
40 -37 70 -17 30 -63 118 -103 195 -40 77 -89 172 -110 210 -20 39 -65 124
-100 190 -34 66 -84 161 -110 210 -26 50 -73 140 -105 200 -142 271 -168 321
-178 333 -5 6 -6 12 -2 12 4 0 3 6 -3 13 -13 15 -41 68 -132 242 -40 77 -95
182 -121 233 -171 324 -232 441 -334 637 -43 83 -88 168 -101 190 l-22 40
-127 2 c-70 1 -129 3 -131 6 -3 3 -21 1 -40 -3 -19 -5 -37 -4 -40 1 -3 5 -10
7 -15 4 -11 -7 -218 -9 -225 -2 -3 3 -21 1 -40 -3 -19 -4 -36 -4 -39 1 -3 4
-14 5 -25 1 -10 -4 -78 -5 -150 -2 -72 3 -139 2 -148 -1z"/>
<path d="M9024 8901 c-2 -3 -24 -4 -47 -2 l-42 2 0 -2803 c0 -1542 3 -2807 7
-2813 4 -7 551 -10 1610 -9 l1603 1 3 629 2 630 -740 -1 -740 0 -1 30 c-4 131
-1 1037 3 1041 3 3 289 6 634 7 l628 2 1 465 c0 256 -2 474 -6 485 -7 20 -15
20 -633 19 -344 0 -626 2 -627 5 -1 8 -1 1041 0 1063 1 15 59 16 719 16 394 1
727 1 740 1 l22 1 0 615 0 615 -380 0 c-209 -1 -384 1 -389 4 -4 3 -11 3 -14
0 -8 -8 -132 -8 -145 0 -5 3 -12 3 -15 0 -8 -8 -132 -8 -145 0 -5 3 -12 3 -15
0 -3 -4 -35 -6 -71 -6 -35 0 -69 2 -74 6 -5 3 -11 3 -14 0 -5 -5 -1294 -5
-1356 0 -18 1 -35 -1 -38 -6 -3 -5 -9 -6 -13 -4 -7 5 -128 10 -146 6 -5 -1
-30 -1 -55 0 -55 3 -92 3 -105 0 -10 -2 -67 0 -123 4 -18 1 -35 0 -38 -3z"/>
</g>
</svg>
