<?xml version="1.0" standalone="no"?>
<!DOCTYPE svg PUBLIC "-//W3C//DTD SVG 20010904//EN"
 "http://www.w3.org/TR/2001/REC-SVG-20010904/DTD/svg10.dtd">
<svg version="1.0" xmlns="http://www.w3.org/2000/svg"
 width="700.000000pt" height="700.000000pt" viewBox="0 0 700.000000 700.000000"
 preserveAspectRatio="xMidYMid meet">
<metadata>
Created by potrace 1.11, written by Peter Selinger 2001-2013
</metadata>
<g transform="translate(0.000000,700.000000) scale(0.100000,-0.100000)"
fill="#000000" stroke="none">
<path d="M440 3785 l0 -1425 849 0 849 0 4 188 c2 103 2 260 0 350 l-3 162
-415 0 -414 0 0 1075 0 1075 -435 0 -435 0 0 -1425z"/>
<path d="M1667 5203 c-4 -3 -7 -438 -7 -965 l0 -958 240 0 240 0 0 965 0 965
-233 0 c-129 0 -237 -3 -240 -7z"/>
<path d="M2580 3785 l0 -1425 305 0 305 0 2 788 3 787 395 -788 395 -787 260
2 260 3 0 1420 0 1420 -305 0 -305 0 -5 -735 -5 -735 -390 737 -390 738 -262
0 -263 0 0 -1425z"/>
<path d="M4945 5198 c-3 -7 -4 -647 -3 -1423 l3 -1410 833 -3 832 -2 -2 197
c-3 197 -3 198 -25 201 -23 3 -23 6 -23 133 l0 129 -415 0 -415 0 0 260 0 260
23 1 c12 0 178 0 370 -1 l347 -1 0 239 0 240 -22 6 c-13 3 -170 6 -350 6 -321
0 -328 0 -328 20 0 13 -7 20 -20 20 -19 0 -20 7 -20 260 l0 260 45 0 c38 0 45
-3 45 -20 0 -20 7 -20 370 -20 l370 0 0 129 c0 127 0 130 23 133 22 3 22 3 22
198 l0 195 -828 3 c-657 2 -829 0 -832 -10z"/>
</g>
</svg>
